# xmcd
#
# Track frame offsets:
#	150
#	10372
#	22515
#	35072
#	46827
#	59200
#	73150
#	83805
#	96037
#	105925
#	117095
#	131720
#	144970
#	172230
#	191817
#	204122
#	214572
#	225312
#	235615
#	248467
#	258040
#	271552
#	285417
#	302287
#	320080
#
# Disc length: 4466 seconds
#
# Revision: 4
# Processed by: cddbd v1.5.2PL0 Copyright (c) Steve Scherf et al.
# Submitted via: EasyCDDAExtractor 16.0.6.1
#
DISCID=43117019
DTITLE=Albert Washington - Blues and Soul Man
DYEAR=1999
DGENRE=Blues
TTITLE0=Doggin' Me Around
TTITLE1=A Woman Is a Funny Thing
TTITLE2=Tellin' All Your Friends
TTITLE3=Rome, GA.
TTITLE4=You Got to Pay Your Dues
TTITLE5=Jealous Woman
TTITLE6=These Arms of Mine
TTITLE7=I'm the Man
TTITLE8=Woman Love
TTITLE9=Bring It on Up
TTITLE10=Turn on the Bright Lights
TTITLE11=Lonely Mountain
TTITLE12=Hold Me Baby
TTITLE13=I'm Gonna Pour Me a Drink
TTITLE14=He's Got the Whole World (In His Hand)
TTITLE15=Having a Good Time
TTITLE16=Crazy Legs (Part 1)
TTITLE17=Crazy Legs (Part 2)
TTITLE18=Mischievous Ways
TTITLE19=Hour of Power
TTITLE20=Case of the Blues
TTITLE21=Go on and Help Yourself
TTITLE22=Loosen These Pains and Let Me Go
TTITLE23=If You Need Me
TTITLE24=Love Is a Wonderful Thing
EXTD=
EXTT0=
EXTT1=
EXTT2=
EXTT3=
EXTT4=
EXTT5=
EXTT6=
EXTT7=
EXTT8=
EXTT9=
EXTT10=
EXTT11=
EXTT12=
EXTT13=
EXTT14=
EXTT15=
EXTT16=
EXTT17=
EXTT18=
EXTT19=
EXTT20=
EXTT21=
EXTT22=
EXTT23=
EXTT24=
PLAYORDER=
